<svg width="30" height="30" viewBox="0 0 30 30" fill="none" xmlns="http://www.w3.org/2000/svg">
<path fill-rule="evenodd" clip-rule="evenodd" d="M2.5 8.125C2.5 5.0184 5.0184 2.5 8.125 2.5H15C17.7614 2.5 20 4.73858 20 7.5V8.75C20 9.44035 19.4404 10 18.75 10C18.0596 10 17.5 9.44035 17.5 8.75V7.5C17.5 6.11929 16.3807 5 15 5H8.125C6.39911 5 5 6.39911 5 8.125V21.875C5 23.6009 6.39911 25 8.125 25H15C16.3807 25 17.5 23.8808 17.5 22.5V21.25C17.5 20.5596 18.0596 20 18.75 20C19.4404 20 20 20.5596 20 21.25V22.5C20 25.2614 17.7614 27.5 15 27.5H8.125C5.0184 27.5 2.5 24.9816 2.5 21.875V8.125ZM22.8661 10.3661C23.3542 9.87796 24.1458 9.87796 24.6339 10.3661L28.3839 14.1161C28.872 14.6043 28.872 15.3958 28.3839 15.8839L24.6339 19.6339C24.1458 20.122 23.3542 20.122 22.8661 19.6339C22.378 19.1458 22.378 18.3543 22.8661 17.8661L24.4823 16.25H13.75C13.0596 16.25 12.5 15.6904 12.5 15C12.5 14.3096 13.0596 13.75 13.75 13.75H24.4823L22.8661 12.1339C22.378 11.6457 22.378 10.8543 22.8661 10.3661Z" fill="white"/>
</svg>
